<?xml version="1.0" encoding="UTF-8"?>
<svg xmlns="http://www.w3.org/2000/svg" width="1728.5" height="3714" viewBox="0 0 1728.5 3714">
  <defs>
      <marker id="arrow-2dd4bf" viewBox="0 0 10 10" refX="10" refY="5" markerWidth="10" markerHeight="10" orient="auto-start-reverse">
        <path d="M 0 0 L 10 5 L 0 10 z" fill="#2dd4bf"/>
      </marker>
    
      <marker id="arrow-ef4444" viewBox="0 0 10 10" refX="10" refY="5" markerWidth="10" markerHeight="10" orient="auto-start-reverse">
        <path d="M 0 0 L 10 5 L 0 10 z" fill="#ef4444"/>
      </marker>
    
      <marker id="arrow-22c55e" viewBox="0 0 10 10" refX="10" refY="5" markerWidth="10" markerHeight="10" orient="auto-start-reverse">
        <path d="M 0 0 L 10 5 L 0 10 z" fill="#22c55e"/>
      </marker>
    
      <marker id="arrow-f59e0b" viewBox="0 0 10 10" refX="10" refY="5" markerWidth="10" markerHeight="10" orient="auto-start-reverse">
        <path d="M 0 0 L 10 5 L 0 10 z" fill="#f59e0b"/>
      </marker>
    </defs>
  <rect width="100%" height="100%" fill="#0a0a0f"/>
  <text x="864.25" y="30" text-anchor="middle" fill="#71717a" font-size="16" font-weight="700" font-family="system-ui, sans-serif">IMPROVED: nodes 320×100, decisions 90×90, font 14px, spacing 120/140, DPI 144</text>
  <path d="M 1052.5 122 L 1052.5 262" fill="none" stroke="#2dd4bf" stroke-width="2" marker-end="url(#arrow-2dd4bf)" stroke-linejoin="round"/><path d="M 1052.5 362 L 1052.5 502" fill="none" stroke="#2dd4bf" stroke-width="2" marker-end="url(#arrow-2dd4bf)" stroke-linejoin="round"/><path d="M 1097.5 547 L 1176.5 547 Q 1188.5 547 1188.5 559 L 1188.5 1753 Q 1188.5 1765 1176.5 1765 L 1154.5 1765 Q 1142.5 1765 1142.5 1777 L 1142.5 3592" fill="none" stroke="#ef4444" stroke-width="2" marker-end="url(#arrow-ef4444)" stroke-linejoin="round"/>
        <rect x="1129.5" y="524" width="27" height="18" rx="4" fill="#18181b" stroke="#ef4444" stroke-width="0.5"/>
        <text x="1143" y="536.5" text-anchor="middle" fill="#ef4444" font-size="10" font-weight="500" font-family="system-ui, sans-serif">No</text>
      <path d="M 1007.5 547 L 754.5 547 Q 742.5 547 742.5 559 L 742.5 609 Q 742.5 621 754.5 621 L 910.5 621 Q 922.5 621 922.5 633 L 922.5 732" fill="none" stroke="#22c55e" stroke-width="2" marker-end="url(#arrow-22c55e)" stroke-linejoin="round"/>
        <rect x="858.25" y="524" width="33.5" height="18" rx="4" fill="#18181b" stroke="#22c55e" stroke-width="0.5"/>
        <text x="875" y="536.5" text-anchor="middle" fill="#22c55e" font-size="10" font-weight="500" font-family="system-ui, sans-serif">Yes</text>
      <path d="M 922.5 832 L 922.5 972" fill="none" stroke="#2dd4bf" stroke-width="2" marker-end="url(#arrow-2dd4bf)" stroke-linejoin="round"/><path d="M 922.5 1072 L 922.5 1212" fill="none" stroke="#2dd4bf" stroke-width="2" marker-end="url(#arrow-2dd4bf)" stroke-linejoin="round"/><path d="M 967.5 1257 L 1310.5 1257 Q 1322.5 1257 1322.5 1269 L 1322.5 1319 Q 1322.5 1331 1310.5 1331 L 1154.5 1331 Q 1142.5 1331 1142.5 1343 L 1142.5 1442" fill="none" stroke="#22c55e" stroke-width="2" marker-end="url(#arrow-22c55e)" stroke-linejoin="round"/>
        <rect x="1128.25" y="1234" width="33.5" height="18" rx="4" fill="#18181b" stroke="#22c55e" stroke-width="0.5"/>
        <text x="1145" y="1246.5" text-anchor="middle" fill="#22c55e" font-size="10" font-weight="500" font-family="system-ui, sans-serif">Yes</text>
      <path d="M 1142.5 1542 L 1142.5 1682" fill="none" stroke="#2dd4bf" stroke-width="2" marker-end="url(#arrow-2dd4bf)" stroke-linejoin="round"/><path d="M 1142.5 1782 L 1142.5 1922" fill="none" stroke="#2dd4bf" stroke-width="2" marker-end="url(#arrow-2dd4bf)" stroke-linejoin="round"/><path d="M 1142.5 2012 L 1142.5 2152" fill="none" stroke="#f59e0b" stroke-width="2" marker-end="url(#arrow-f59e0b)" stroke-linejoin="round"/>
        <rect x="1096.5" y="2073" width="92" height="18" rx="4" fill="#18181b" stroke="#f59e0b" stroke-width="0.5"/>
        <text x="1142.5" y="2085.5" text-anchor="middle" fill="#f59e0b" font-size="10" font-weight="500" font-family="system-ui, sans-serif">Needs review</text>
      <path d="M 1142.5 2252 L 1142.5 2397" fill="none" stroke="#2dd4bf" stroke-width="2" marker-end="url(#arrow-2dd4bf)" stroke-linejoin="round"/><path d="M 1097.5 2442 L 812 2442 Q 800 2442 800 2454 L 800 2506 Q 800 2518 812 2518 L 968 2518 Q 980 2518 980 2530 L 980 2632" fill="none" stroke="#22c55e" stroke-width="2" marker-end="url(#arrow-22c55e)" stroke-linejoin="round"/>
        <rect x="915.75" y="2419" width="66" height="18" rx="4" fill="#18181b" stroke="#22c55e" stroke-width="0.5"/>
        <text x="948.75" y="2431.5" text-anchor="middle" fill="#22c55e" font-size="10" font-weight="500" font-family="system-ui, sans-serif">Approved</text>
      <path d="M 1187.5 2442 L 1616.5 2442 Q 1628.5 2442 1628.5 2454 L 1628.5 2698 Q 1628.5 2710 1616.5 2710 L 1460.5 2710 Q 1448.5 2710 1448.5 2722 L 1448.5 3112" fill="none" stroke="#ef4444" stroke-width="2" marker-end="url(#arrow-ef4444)" stroke-linejoin="round"/>
        <rect x="1375" y="2419" width="66" height="18" rx="4" fill="#18181b" stroke="#ef4444" stroke-width="0.5"/>
        <text x="1408" y="2431.5" text-anchor="middle" fill="#ef4444" font-size="10" font-weight="500" font-family="system-ui, sans-serif">Rejected</text>
      <path d="M 980 2732 L 980 2872" fill="none" stroke="#2dd4bf" stroke-width="2" marker-end="url(#arrow-2dd4bf)" stroke-linejoin="round"/><path d="M 1448.5 3212 L 1448.5 3352" fill="none" stroke="#2dd4bf" stroke-width="2" marker-end="url(#arrow-2dd4bf)" stroke-linejoin="round"/><path d="M 980 2972 L 980 3117" fill="none" stroke="#2dd4bf" stroke-width="2" marker-end="url(#arrow-2dd4bf)" stroke-linejoin="round"/><path d="M 935 3162 L 552 3162 Q 540 3162 540 3174 L 540 3226 Q 540 3238 552 3238 L 708 3238 Q 720 3238 720 3250 L 720 3352" fill="none" stroke="#22c55e" stroke-width="2" marker-end="url(#arrow-22c55e)" stroke-linejoin="round"/>
        <rect x="720.75" y="3139" width="33.5" height="18" rx="4" fill="#18181b" stroke="#22c55e" stroke-width="0.5"/>
        <text x="737.5" y="3151.5" text-anchor="middle" fill="#22c55e" font-size="10" font-weight="500" font-family="system-ui, sans-serif">Yes</text>
      <path d="M 1025 3162 L 1167 3162 Q 1179 3162 1179 3174 L 1179 3235.6 Q 1179 3247.6 1167 3247.6 L 1145 3247.6 Q 1133 3247.6 1133 3259.6 L 1133 3376" fill="none" stroke="#ef4444" stroke-width="2" marker-end="url(#arrow-ef4444)" stroke-linejoin="round"/>
        <rect x="1088.5" y="3139" width="27" height="18" rx="4" fill="#18181b" stroke="#ef4444" stroke-width="0.5"/>
        <text x="1102" y="3151.5" text-anchor="middle" fill="#ef4444" font-size="10" font-weight="500" font-family="system-ui, sans-serif">No</text>
      <path d="M 877.5 1257 L 372 1257 Q 360 1257 360 1269 L 360 1603 Q 360 1615 372 1615 L 528 1615 Q 540 1615 540 1627 L 540 2152" fill="none" stroke="#ef4444" stroke-width="2" marker-end="url(#arrow-ef4444)" stroke-linejoin="round"/>
        <rect x="605.25" y="1234" width="27" height="18" rx="4" fill="#18181b" stroke="#ef4444" stroke-width="0.5"/>
        <text x="618.75" y="1246.5" text-anchor="middle" fill="#ef4444" font-size="10" font-weight="500" font-family="system-ui, sans-serif">No</text>
      <path d="M 540 2252 L 540 2392" fill="none" stroke="#2dd4bf" stroke-width="2" marker-end="url(#arrow-2dd4bf)" stroke-linejoin="round"/><path d="M 540 2492 L 540 2632" fill="none" stroke="#2dd4bf" stroke-width="2" marker-end="url(#arrow-2dd4bf)" stroke-linejoin="round"/><path d="M 540 2732 L 540 2872" fill="none" stroke="#2dd4bf" stroke-width="2" marker-end="url(#arrow-2dd4bf)" stroke-linejoin="round"/><path d="M 540 2972 L 540 3117" fill="none" stroke="#2dd4bf" stroke-width="2" marker-end="url(#arrow-2dd4bf)" stroke-linejoin="round"/><path d="M 495 3162 L 112 3162 Q 100 3162 100 3174 L 100 3226 Q 100 3238 112 3238 L 268 3238 Q 280 3238 280 3250 L 280 3352" fill="none" stroke="#22c55e" stroke-width="2" marker-end="url(#arrow-22c55e)" stroke-linejoin="round"/>
        <rect x="280.75" y="3139" width="33.5" height="18" rx="4" fill="#18181b" stroke="#22c55e" stroke-width="0.5"/>
        <text x="297.5" y="3151.5" text-anchor="middle" fill="#22c55e" font-size="10" font-weight="500" font-family="system-ui, sans-serif">Yes</text>
      <path d="M 585 3162 L 1167 3162 Q 1179 3162 1179 3174 L 1179 3235.6 Q 1179 3247.6 1167 3247.6 L 1145 3247.6 Q 1133 3247.6 1133 3259.6 L 1133 3376" fill="none" stroke="#ef4444" stroke-width="2" marker-end="url(#arrow-ef4444)" stroke-linejoin="round"/>
        <rect x="868.5" y="3139" width="27" height="18" rx="4" fill="#18181b" stroke="#ef4444" stroke-width="0.5"/>
        <text x="882" y="3151.5" text-anchor="middle" fill="#ef4444" font-size="10" font-weight="500" font-family="system-ui, sans-serif">No</text>
      <path d="M 1448.5 3452 L 1448.5 3510 Q 1448.5 3522 1436.5 3522 L 1154.5 3522 Q 1142.5 3522 1142.5 3534 L 1142.5 3592" fill="none" stroke="#2dd4bf" stroke-width="2" marker-end="url(#arrow-2dd4bf)" stroke-linejoin="round"/><path d="M 720 3452 L 720 3510 Q 720 3522 732 3522 L 1130.5 3522 Q 1142.5 3522 1142.5 3534 L 1142.5 3592" fill="none" stroke="#2dd4bf" stroke-width="2" marker-end="url(#arrow-2dd4bf)" stroke-linejoin="round"/><path d="M 280 3452 L 280 3510 Q 280 3522 292 3522 L 1130.5 3522 Q 1142.5 3522 1142.5 3534 L 1142.5 3592" fill="none" stroke="#2dd4bf" stroke-width="2" marker-end="url(#arrow-2dd4bf)" stroke-linejoin="round"/>
  
      <circle cx="1052.5" cy="96" r="21.32" fill="#059669" stroke="#34d399" stroke-width="2"/>
      <polygon points="1047.2766,88.538 1047.2766,103.462 1059.962,96" fill="white"/>
    
    <rect x="892.5" y="262" width="320" height="100" rx="8" fill="#1e1e2e" stroke="#2dd4bf" stroke-width="1.5"/>
    <text x="1052.5" y="284" text-anchor="middle" fill="#e4e4e7" font-size="14" font-weight="600" font-family="system-ui, sans-serif">Get Today&apos;s Birthday Events (Birthdays</text><text x="1052.5" y="302" text-anchor="middle" fill="#e4e4e7" font-size="14" font-weight="600" font-family="system-ui, sans-serif">calendar)</text>
    
      <rect x="900.5" y="338" width="60.199999999999996" height="18" rx="3" fill="#374151"/>
      <text x="930.6" y="350.96" text-anchor="middle" fill="#9ca3af" font-size="11" font-family="system-ui, sans-serif">System</text>
    
        <rect x="964.7" y="338" width="239.79999999999995" height="18" rx="3" fill="#1e293b"/>
        <text x="1084.6" y="350.96" text-anchor="middle" fill="#64748b" font-size="11" font-family="system-ui, sans-serif">Google Calendar (UiPath activi…</text>
      
  
      <g transform="translate(1052.5, 547)">
        <rect x="-32.4" y="-32.4" width="64.8" height="64.8" rx="4" transform="rotate(45)" fill="#d97706" stroke="#fbbf24" stroke-width="1.5"/>
        <text x="0" y="-9.6" text-anchor="middle" fill="white" font-size="11" font-weight="600" font-family="system-ui, sans-serif">Any Birthdays</text><text x="0" y="4.4" text-anchor="middle" fill="white" font-size="11" font-weight="600" font-family="system-ui, sans-serif">Today?</text>
      </g>
    
      <circle cx="1142.5" cy="3618" r="21.32" fill="#dc2626" stroke="#f87171" stroke-width="2"/>
      <rect x="1132.906" y="3608.406" width="19.188000000000002" height="19.188000000000002" rx="2" fill="white"/>
    
    <rect x="762.5" y="732" width="320" height="100" rx="8" fill="#1e1e2e" stroke="#2dd4bf" stroke-width="1.5"/>
    <text x="922.5" y="754" text-anchor="middle" fill="#e4e4e7" font-size="14" font-weight="600" font-family="system-ui, sans-serif">For Each Birthday Person</text>
    
      <rect x="770.5" y="808" width="60.199999999999996" height="18" rx="3" fill="#374151"/>
      <text x="800.6" y="820.96" text-anchor="middle" fill="#9ca3af" font-size="11" font-family="system-ui, sans-serif">System</text>
    
        <rect x="834.7" y="808" width="106.39999999999999" height="18" rx="3" fill="#1e293b"/>
        <text x="887.9000000000001" y="820.96" text-anchor="middle" fill="#64748b" font-size="11" font-family="system-ui, sans-serif">Orchestrator</text>
      
  
    <rect x="762.5" y="972" width="320" height="100" rx="8" fill="#1e1e2e" stroke="#2dd4bf" stroke-width="1.5"/>
    <text x="922.5" y="994" text-anchor="middle" fill="#e4e4e7" font-size="14" font-weight="600" font-family="system-ui, sans-serif">Lookup Contact by Full Name</text>
    
      <rect x="770.5" y="1048" width="60.199999999999996" height="18" rx="3" fill="#374151"/>
      <text x="800.6" y="1060.96" text-anchor="middle" fill="#9ca3af" font-size="11" font-family="system-ui, sans-serif">System</text>
    
        <rect x="834.7" y="1048" width="239.79999999999995" height="18" rx="3" fill="#1e293b"/>
        <text x="954.6" y="1060.96" text-anchor="middle" fill="#64748b" font-size="11" font-family="system-ui, sans-serif">Google Contacts (UiPath activi…</text>
      
  
      <g transform="translate(922.5, 1257)">
        <rect x="-32.4" y="-32.4" width="64.8" height="64.8" rx="4" transform="rotate(45)" fill="#d97706" stroke="#fbbf24" stroke-width="1.5"/>
        <text x="0" y="-9.6" text-anchor="middle" fill="white" font-size="11" font-weight="600" font-family="system-ui, sans-serif">Email</text><text x="0" y="4.4" text-anchor="middle" fill="white" font-size="11" font-weight="600" font-family="system-ui, sans-serif">Available</text>
      </g>
    
    <rect x="982.5" y="1442" width="320" height="100" rx="8" fill="#1e1e2e" stroke="#2dd4bf" stroke-width="1.5"/>
    <text x="1142.5" y="1464" text-anchor="middle" fill="#e4e4e7" font-size="14" font-weight="600" font-family="system-ui, sans-serif">Select Preferred Email (Personal over</text><text x="1142.5" y="1482" text-anchor="middle" fill="#e4e4e7" font-size="14" font-weight="600" font-family="system-ui, sans-serif">Home)</text>
    
      <rect x="990.5" y="1518" width="60.199999999999996" height="18" rx="3" fill="#374151"/>
      <text x="1020.6" y="1530.96" text-anchor="middle" fill="#9ca3af" font-size="11" font-family="system-ui, sans-serif">System</text>
    
        <rect x="1054.7" y="1518" width="106.39999999999999" height="18" rx="3" fill="#1e293b"/>
        <text x="1107.9" y="1530.96" text-anchor="middle" fill="#64748b" font-size="11" font-family="system-ui, sans-serif">Orchestrator</text>
      
  
    <rect x="982.5" y="1682" width="320" height="100" rx="8" fill="#1e1e2e" stroke="#2dd4bf" stroke-width="1.5"/>
    <text x="1142.5" y="1704" text-anchor="middle" fill="#e4e4e7" font-size="14" font-weight="600" font-family="system-ui, sans-serif">Generate Birthday Message in My Voice</text>
    
      <rect x="990.5" y="1758" width="60.199999999999996" height="18" rx="3" fill="#374151"/>
      <text x="1020.6" y="1770.96" text-anchor="middle" fill="#9ca3af" font-size="11" font-family="system-ui, sans-serif">System</text>
    
        <rect x="1054.7" y="1758" width="191.1" height="18" rx="3" fill="#1e293b"/>
        <text x="1150.25" y="1770.96" text-anchor="middle" fill="#64748b" font-size="11" font-family="system-ui, sans-serif">UiPath GenAI Activities</text>
      
  
      <g transform="translate(1142.5, 1967)">
        <rect x="-32.4" y="-32.4" width="64.8" height="64.8" rx="4" transform="rotate(45)" fill="#7c3aed" stroke="#a78bfa" stroke-width="1.5"/>
        <text x="0" y="-9.6" text-anchor="middle" fill="white" font-size="11" font-weight="600" font-family="system-ui, sans-serif">Message Policy</text><text x="0" y="4.4" text-anchor="middle" fill="white" font-size="11" font-weight="600" font-family="system-ui, sans-serif">Check</text>
      </g>
    
    <rect x="982.5" y="2152" width="320" height="100" rx="8" fill="#1e1e2e" stroke="#2dd4bf" stroke-width="1.5"/>
    <text x="1142.5" y="2174" text-anchor="middle" fill="#e4e4e7" font-size="14" font-weight="600" font-family="system-ui, sans-serif">Create Human Review Task (Message Needs</text><text x="1142.5" y="2192" text-anchor="middle" fill="#e4e4e7" font-size="14" font-weight="600" font-family="system-ui, sans-serif">Review)</text>
    
      <rect x="990.5" y="2228" width="60.199999999999996" height="18" rx="3" fill="#374151"/>
      <text x="1020.6" y="2240.96" text-anchor="middle" fill="#9ca3af" font-size="11" font-family="system-ui, sans-serif">System</text>
    
        <rect x="1054.7" y="2228" width="114.1" height="18" rx="3" fill="#1e293b"/>
        <text x="1111.75" y="2240.96" text-anchor="middle" fill="#64748b" font-size="11" font-family="system-ui, sans-serif">Action Center</text>
      
  
      <g transform="translate(1142.5, 2442)">
        <rect x="-32.4" y="-32.4" width="64.8" height="64.8" rx="4" transform="rotate(45)" fill="#d97706" stroke="#fbbf24" stroke-width="1.5"/>
        <text x="0" y="-9.6" text-anchor="middle" fill="white" font-size="11" font-weight="600" font-family="system-ui, sans-serif">Approved to</text><text x="0" y="4.4" text-anchor="middle" fill="white" font-size="11" font-weight="600" font-family="system-ui, sans-serif">Send?</text>
      </g>
    
    <rect x="820" y="2632" width="320" height="100" rx="8" fill="#1e1e2e" stroke="#2dd4bf" stroke-width="1.5"/>
    <text x="980" y="2654" text-anchor="middle" fill="#e4e4e7" font-size="14" font-weight="600" font-family="system-ui, sans-serif">Send Birthday Email</text>
    
      <rect x="828" y="2708" width="60.199999999999996" height="18" rx="3" fill="#374151"/>
      <text x="858.1" y="2720.96" text-anchor="middle" fill="#9ca3af" font-size="11" font-family="system-ui, sans-serif">System</text>
    
        <rect x="892.2" y="2708" width="221.89999999999998" height="18" rx="3" fill="#1e293b"/>
        <text x="1003.1500000000001" y="2720.96" text-anchor="middle" fill="#64748b" font-size="11" font-family="system-ui, sans-serif">Gmail (Integration Service)</text>
      
  
    <rect x="1288.5" y="3112" width="320" height="100" rx="8" fill="#1e1e2e" stroke="#2dd4bf" stroke-width="1.5"/>
    <text x="1448.5" y="3134" text-anchor="middle" fill="#e4e4e7" font-size="14" font-weight="600" font-family="system-ui, sans-serif">Skip Send (Rejected)</text>
    
      <rect x="1296.5" y="3188" width="60.199999999999996" height="18" rx="3" fill="#374151"/>
      <text x="1326.6" y="3200.96" text-anchor="middle" fill="#9ca3af" font-size="11" font-family="system-ui, sans-serif">System</text>
    
        <rect x="1360.7" y="3188" width="106.39999999999999" height="18" rx="3" fill="#1e293b"/>
        <text x="1413.9" y="3200.96" text-anchor="middle" fill="#64748b" font-size="11" font-family="system-ui, sans-serif">Orchestrator</text>
      
  
    <rect x="820" y="2872" width="320" height="100" rx="8" fill="#1e1e2e" stroke="#2dd4bf" stroke-width="1.5"/>
    <text x="980" y="2894" text-anchor="middle" fill="#e4e4e7" font-size="14" font-weight="600" font-family="system-ui, sans-serif">Mark Person Processed</text>
    
      <rect x="828" y="2948" width="60.199999999999996" height="18" rx="3" fill="#374151"/>
      <text x="858.1" y="2960.96" text-anchor="middle" fill="#9ca3af" font-size="11" font-family="system-ui, sans-serif">System</text>
    
        <rect x="892.2" y="2948" width="106.39999999999999" height="18" rx="3" fill="#1e293b"/>
        <text x="945.4000000000001" y="2960.96" text-anchor="middle" fill="#64748b" font-size="11" font-family="system-ui, sans-serif">Data Service</text>
      
  
    <rect x="1288.5" y="3352" width="320" height="100" rx="8" fill="#1e1e2e" stroke="#2dd4bf" stroke-width="1.5"/>
    <text x="1448.5" y="3374" text-anchor="middle" fill="#e4e4e7" font-size="14" font-weight="600" font-family="system-ui, sans-serif">Mark Person Skipped</text>
    
      <rect x="1296.5" y="3428" width="60.199999999999996" height="18" rx="3" fill="#374151"/>
      <text x="1326.6" y="3440.96" text-anchor="middle" fill="#9ca3af" font-size="11" font-family="system-ui, sans-serif">System</text>
    
        <rect x="1360.7" y="3428" width="106.39999999999999" height="18" rx="3" fill="#1e293b"/>
        <text x="1413.9" y="3440.96" text-anchor="middle" fill="#64748b" font-size="11" font-family="system-ui, sans-serif">Data Service</text>
      
  
      <g transform="translate(980, 3162)">
        <rect x="-32.4" y="-32.4" width="64.8" height="64.8" rx="4" transform="rotate(45)" fill="#d97706" stroke="#fbbf24" stroke-width="1.5"/>
        <text x="0" y="-9.6" text-anchor="middle" fill="white" font-size="11" font-weight="600" font-family="system-ui, sans-serif">Next Birthday</text><text x="0" y="4.4" text-anchor="middle" fill="white" font-size="11" font-weight="600" font-family="system-ui, sans-serif">Person?</text>
      </g>
    
    <rect x="560" y="3352" width="320" height="100" rx="8" fill="#1e1e2e" stroke="#2dd4bf" stroke-width="1.5"/>
    <text x="720" y="3374" text-anchor="middle" fill="#e4e4e7" font-size="14" font-weight="600" font-family="system-ui, sans-serif">Loop to Next Person</text>
    
      <rect x="568" y="3428" width="60.199999999999996" height="18" rx="3" fill="#374151"/>
      <text x="598.1" y="3440.96" text-anchor="middle" fill="#9ca3af" font-size="11" font-family="system-ui, sans-serif">System</text>
    
        <rect x="632.2" y="3428" width="106.39999999999999" height="18" rx="3" fill="#1e293b"/>
        <text x="685.4000000000001" y="3440.96" text-anchor="middle" fill="#64748b" font-size="11" font-family="system-ui, sans-serif">Orchestrator</text>
      
  
      <circle cx="1133" cy="3402" r="21.32" fill="#dc2626" stroke="#f87171" stroke-width="2"/>
      <rect x="1123.406" y="3392.406" width="19.188000000000002" height="19.188000000000002" rx="2" fill="white"/>
    
    <rect x="380" y="2152" width="320" height="100" rx="8" fill="#1e1e2e" stroke="#2dd4bf" stroke-width="1.5"/>
    <text x="540" y="2174" text-anchor="middle" fill="#e4e4e7" font-size="14" font-weight="600" font-family="system-ui, sans-serif">No Action (No Email Found)</text>
    
      <rect x="388" y="2228" width="60.199999999999996" height="18" rx="3" fill="#374151"/>
      <text x="418.1" y="2240.96" text-anchor="middle" fill="#9ca3af" font-size="11" font-family="system-ui, sans-serif">System</text>
    
        <rect x="452.2" y="2228" width="106.39999999999999" height="18" rx="3" fill="#1e293b"/>
        <text x="505.4" y="2240.96" text-anchor="middle" fill="#64748b" font-size="11" font-family="system-ui, sans-serif">Orchestrator</text>
      
  
    <rect x="380" y="2392" width="320" height="100" rx="8" fill="#1e1e2e" stroke="#2dd4bf" stroke-width="1.5"/>
    <text x="540" y="2414" text-anchor="middle" fill="#e4e4e7" font-size="14" font-weight="600" font-family="system-ui, sans-serif">Mark Missing Email</text>
    
      <rect x="388" y="2468" width="60.199999999999996" height="18" rx="3" fill="#374151"/>
      <text x="418.1" y="2480.96" text-anchor="middle" fill="#9ca3af" font-size="11" font-family="system-ui, sans-serif">System</text>
    
        <rect x="452.2" y="2468" width="106.39999999999999" height="18" rx="3" fill="#1e293b"/>
        <text x="505.4" y="2480.96" text-anchor="middle" fill="#64748b" font-size="11" font-family="system-ui, sans-serif">Data Service</text>
      
  
    <rect x="380" y="2632" width="320" height="100" rx="8" fill="#1e1e2e" stroke="#2dd4bf" stroke-width="1.5"/>
    <text x="540" y="2654" text-anchor="middle" fill="#e4e4e7" font-size="14" font-weight="600" font-family="system-ui, sans-serif">Return to Loop Control</text>
    
      <rect x="388" y="2708" width="60.199999999999996" height="18" rx="3" fill="#374151"/>
      <text x="418.1" y="2720.96" text-anchor="middle" fill="#9ca3af" font-size="11" font-family="system-ui, sans-serif">System</text>
    
        <rect x="452.2" y="2708" width="106.39999999999999" height="18" rx="3" fill="#1e293b"/>
        <text x="505.4" y="2720.96" text-anchor="middle" fill="#64748b" font-size="11" font-family="system-ui, sans-serif">Orchestrator</text>
      
  
    <rect x="380" y="2872" width="320" height="100" rx="8" fill="#1e1e2e" stroke="#2dd4bf" stroke-width="1.5"/>
    <text x="540" y="2894" text-anchor="middle" fill="#e4e4e7" font-size="14" font-weight="600" font-family="system-ui, sans-serif">Continue Loop Check</text>
    
      <rect x="388" y="2948" width="60.199999999999996" height="18" rx="3" fill="#374151"/>
      <text x="418.1" y="2960.96" text-anchor="middle" fill="#9ca3af" font-size="11" font-family="system-ui, sans-serif">System</text>
    
        <rect x="452.2" y="2948" width="106.39999999999999" height="18" rx="3" fill="#1e293b"/>
        <text x="505.4" y="2960.96" text-anchor="middle" fill="#64748b" font-size="11" font-family="system-ui, sans-serif">Orchestrator</text>
      
  
      <g transform="translate(540, 3162)">
        <rect x="-32.4" y="-32.4" width="64.8" height="64.8" rx="4" transform="rotate(45)" fill="#d97706" stroke="#fbbf24" stroke-width="1.5"/>
        <text x="0" y="-9.6" text-anchor="middle" fill="white" font-size="11" font-weight="600" font-family="system-ui, sans-serif">Next Birthday</text><text x="0" y="4.4" text-anchor="middle" fill="white" font-size="11" font-weight="600" font-family="system-ui, sans-serif">Person? (after</text>
      </g>
    
    <rect x="120" y="3352" width="320" height="100" rx="8" fill="#1e1e2e" stroke="#2dd4bf" stroke-width="1.5"/>
    <text x="280" y="3374" text-anchor="middle" fill="#e4e4e7" font-size="14" font-weight="600" font-family="system-ui, sans-serif">Loop to Next (from missing email path)</text>
    
      <rect x="128" y="3428" width="60.199999999999996" height="18" rx="3" fill="#374151"/>
      <text x="158.1" y="3440.96" text-anchor="middle" fill="#9ca3af" font-size="11" font-family="system-ui, sans-serif">System</text>
    
        <rect x="192.2" y="3428" width="106.39999999999999" height="18" rx="3" fill="#1e293b"/>
        <text x="245.39999999999998" y="3440.96" text-anchor="middle" fill="#64748b" font-size="11" font-family="system-ui, sans-serif">Orchestrator</text>
      
  
</svg>